# xmcd
#
# Track frame offsets:
#       150
#       13454
#       39650
#       81271
#       111491
#       152417
#       174100
#       196019
#       231347
#
# Disc length: 3787 seconds
#
# Revision: 1
# Processed by: cddbd v1.5.2PL0 Copyright (c) Steve Scherf et al.
# Submitted via: FreeDbEdit v0.1
#
DISCID=6b0ec909
DTITLE=Neil Young and Crazy Horse - Disc 1 Neil Young and Crazy Horse P
DTITLE=hiladelphia 1991-02-06
DYEAR=1991
DGENRE=Rock
TTITLE0=Star Spangled Banner
TTITLE1=My My Hey Hey
TTITLE2=Crime in the City
TTITLE3=Blowin' in the Wind
TTITLE4=Love to Burn
TTITLE5=Cinnamon Girl
TTITLE6=Mansion on the Hill
TTITLE7=Fuckin' Up
TTITLE8=Cortez the Killer
EXTD=
EXTT0=
EXTT1=
EXTT2=
EXTT3=
EXTT4=
EXTT5=
EXTT6=
EXTT7=
EXTT8=
PLAYORDER=
